<svg xmlns="http://www.w3.org/2000/svg" viewBox="0 0 499.996 499.996" width="512" height="512"><path d="M499.292 19.184c-.1-.528-.384-1.036-.548-1.54l-.332-.908a19.092 19.092 0 0 0-.664-1.936c-.26-.624-.596-1.204-.92-1.784l-.468-.848a14.69 14.69 0 0 0-.784-1.388 23.585 23.585 0 0 0-6.492-6.488c-.424-.284-.876-.516-1.324-.748l-.76-.412c-.628-.356-1.256-.7-1.94-.992a16.729 16.729 0 0 0-1.776-.58l-.932-.28a13.98 13.98 0 0 0-1.672-.468c-1.3-.256-2.668-.508-4.1-.536-.16-.016-.344-.136-.464-.136h-97.44c-12.912 0-23.412 10.528-23.412 23.436 0 12.912 10.5 23.436 23.412 23.436h40.928L315.208 151.476c-34.208-26.868-76.764-41.584-120.24-41.584C87.46 109.888 0 197.372 0 304.88c0 107.5 87.46 194.976 194.968 194.976s194.972-87.46 194.972-194.968c0-43.472-14.544-86.024-41.412-120.236L453.124 80.276v40.928c0 12.908 10.528 23.412 23.436 23.412s23.436-10.5 23.436-23.412V23.768c.004-1.516-.4-3.06-.704-4.584zm-304.324 433.86c-81.692 0-148.152-66.46-148.152-148.148 0-81.696 66.46-148.156 148.152-148.156 81.688 0 148.156 66.46 148.156 148.156-.004 81.688-66.468 148.148-148.156 148.148z" fill="#FFF"/></svg>