<?xml version="1.0" standalone="no"?>
<!DOCTYPE svg PUBLIC "-//W3C//DTD SVG 20010904//EN"
 "http://www.w3.org/TR/2001/REC-SVG-20010904/DTD/svg10.dtd">
<svg version="1.0" xmlns="http://www.w3.org/2000/svg"
 width="79.000000pt" height="79.000000pt" viewBox="0 0 79.000000 79.000000"
 preserveAspectRatio="xMidYMid meet">
<metadata>
Created by potrace 1.11, written by Peter Selinger 2001-2013
</metadata>
<g transform="translate(0.000000,79.000000) scale(0.100000,-0.100000)"
fill="#000000" stroke="none">
<path d="M243 634 c-53 -19 -128 -85 -156 -138 -17 -32 -22 -58 -22 -121 0
-86 19 -138 67 -182 22 -21 26 -21 66 -8 50 18 203 31 229 20 10 -4 41 -9 70
-11 49 -3 54 -1 77 29 l26 32 0 -30 c0 -17 -7 -41 -16 -53 -14 -20 -14 -22 3
-22 26 0 80 35 93 61 7 12 10 34 8 50 -5 35 2 37 28 8 14 -16 15 -23 7 -26
-18 -6 -16 -23 1 -23 8 0 24 16 36 35 25 41 17 66 -29 86 l-29 13 24 19 c29
23 30 31 3 69 -22 31 -35 32 -96 13 -19 -6 -23 -4 -23 13 0 38 -75 118 -141
151 -71 35 -152 41 -226 15z m327 -124 c20 -9 35 -53 25 -76 -7 -18 -7 -18
-15 1 -7 19 -7 19 -14 -2 -10 -31 -24 -29 -31 5 -3 15 -9 43 -14 64 -7 34 -7
36 13 26 12 -6 28 -14 36 -18z m-74 -48 c6 -4 15 -18 19 -32 7 -23 7 -24 -10
-10 -16 14 -17 13 -11 -8 9 -26 -1 -28 -26 -5 -11 10 -33 16 -58 15 -37 -2
-40 0 -30 17 5 11 15 22 22 24 20 8 82 8 94 -1z m224 -29 c20 -26 20 -27 3
-45 -23 -22 -114 -32 -106 -11 4 9 0 11 -11 7 -20 -8 -20 5 -1 34 13 18 52 37
87 41 4 1 16 -11 28 -26z m-182 -92 c41 -35 24 -62 -60 -99 l-46 -20 -7 45
c-9 60 12 84 80 91 6 1 20 -7 33 -17z m199 -16 c23 -15 31 -49 14 -59 -4 -3
-16 3 -26 14 -10 11 -35 25 -56 31 -30 10 -35 14 -26 25 14 17 60 11 94 -11z
m-61 -62 c8 -32 -3 -52 -44 -76 l-31 -18 9 31 c5 19 5 41 -1 56 -13 35 -11 44
6 38 8 -4 15 -1 15 5 0 22 40 -9 46 -36z"/>
<path d="M282 165 c-75 -18 -85 -31 -37 -51 58 -24 167 -16 230 16 79 41 71
50 -42 49 -54 0 -122 -6 -151 -14z"/>
</g>
</svg>
